<svg width="97" height="45" viewBox="0 0 97 45" fill="none" xmlns="http://www.w3.org/2000/svg">
<path d="M9.02814 12.8632V17.6812H13.8851V12.8632H9.02814Z" fill="#01263B"/>
<path d="M38.1618 8.04651V27.3382H33.2418V27.3173H23.595V32.1354H38.1618V36.9534H9.03375V22.4993H23.595V12.8632H13.8852V8.04651H38.1618Z" fill="#01263B"/>
<path d="M63.5791 18.802V36.9534H54.432V30.902H48.3348V36.9534H45.2877V21.827H48.3348V27.877H54.432V21.827H48.3348V18.802H63.5791Z" fill="#01263B"/>
<path d="M69.6763 36.9535V18.8035H75.7734V24.8535H78.822V21.8285H81.8706V18.8035H87.9719V36.9535H81.8706V27.8757H78.822V30.9035H75.7734V27.8757H72.7248V36.9507L69.6763 36.9535Z" fill="#01263B"/>
</svg>
